Coordinates
version=1
nRows=14
nColumns=46
inDegrees=yes

Units are S.I. units (second, meters, Newtons, ...)
Angles are in degrees.

endheader
time	pelvis_tilt	pelvis_list	pelvis_rotation	pelvis_tx	pelvis_ty	pelvis_tz	bb_angle	bb_tx	bb_ty	bb_tz	hip_flexion_r	hip_adduction_r	hip_rotation_r	knee_angle_r	knee_angle_r_beta	ankle_angle_r	subtalar_angle_r	mtp_angle_r	crank_angle_r	hip_flexion_l	hip_adduction_l	hip_rotation_l	knee_angle_l	knee_angle_l_beta	ankle_angle_l	subtalar_angle_l	mtp_angle_l	crank_angle_l	lumbar_extension	lumbar_bending	lumbar_rotation	arm_flex_r	arm_add_r	arm_rot_r	elbow_flex_r	pro_sup_r	wrist_flex_r	wrist_dev_r	arm_flex_l	arm_add_l	arm_rot_l	elbow_flex_l	pro_sup_l	wrist_flex_l	wrist_dev_l
      0.00500000	    -19.77730884	      2.93471863	      2.88992272	      0.09349277	      1.07375057	     -0.26052200	      0.00000000	      0.50000000	      0.00000000	      0.25000000	     46.21448034	     -8.07244744	     -3.24686903	     42.74833542	      0.74609920	      1.35642933	    -11.30062754	      0.00000000	      0.00000000	     96.88805162	     -3.08887602	     -1.62530252	    108.02128369	      1.88532706	     23.64407812	     -5.14025845	      0.00000000	      0.00000000	    -46.80230396	     -1.37564549	     -3.87300821	     89.69089447	     -6.74367730	     38.80499120	     22.47415572	     28.09388418	      0.00000000	      0.00000000	     89.77110815	     -1.59999512	     40.64419401	     23.09934458	     26.37518903	      0.00000000	      0.00000000
      0.01000000	    -19.78335087	      2.93803889	      2.87879371	      0.09352974	      1.07375568	     -0.26049917	      0.00000000	      0.50000000	      0.00000000	      0.25000000	     46.22084876	     -8.06285272	     -3.23762720	     42.74795599	      0.74609258	      1.34240341	    -11.32922398	      0.00000000	      0.00000000	     96.89448945	     -3.11142019	     -1.63278621	    108.02672789	      1.88542208	     23.63068973	     -5.11625420	      0.00000000	      0.00000000	    -46.80604020	     -1.38870086	     -3.82593481	     89.68688333	     -6.83991130	     39.05702048	     23.43213226	     23.55668044	      0.00000000	      0.00000000	     89.77108196	     -1.36854806	     40.42489451	     24.02435985	     20.17841787	      0.00000000	      0.00000000
      0.01500000	    -19.76594034	      2.91075607	      2.87776746	      0.09352604	      1.07377538	     -0.26051838	      0.00000000	      0.50000000	      0.00000000	      0.25000000	     46.19263955	     -8.03884432	     -3.25600564	     42.73245642	      0.74582206	      1.33320094	    -11.35735210	      0.00000000	      0.00000000	     96.87410041	     -3.10577349	     -1.55946305	    108.04324842	      1.88571042	     23.73377212	     -4.93188094	      0.00000000	      0.00000000	    -46.86007021	     -1.36726821	     -3.77776194	     89.68332681	     -6.67805629	     37.62920800	     23.32918014	     24.80717675	      0.00000000	      0.00000000	     89.76855354	     -1.13386108	     38.98386405	     23.87976594	     21.87688240	      0.00000000	      0.00000000
      0.02000000	    -19.59900707	      2.88726774	      2.68942069	      0.09410733	      1.07401293	     -0.26006528	      0.00000000	      0.50000000	      0.00000000	      0.25000000	     45.98569667	     -7.86573989	     -3.18081038	     42.70997680	      0.74542972	      1.33882573	    -11.33719413	      0.00000000	      0.00000000	     96.60463210	     -3.14312696	     -1.22155344	    108.08832550	      1.88649716	     24.02419660	     -4.64291131	      0.00000000	      0.00000000	    -47.03696611	     -1.50127411	     -3.62163165	     89.68222794	     -6.58044943	     37.02103249	     23.33512934	     25.23543884	      0.00000000	      0.00000000	     89.77079618	     -1.01252953	     37.92301634	     24.95087736	     22.68200836	      0.00000000	      0.00000000
      0.02500000	    -19.57439725	      2.84803715	      2.68715164	      0.09397586	      1.07401706	     -0.25991322	      0.00000000	      0.50000000	      0.00000000	      0.25000000	     45.95398889	     -7.78644041	     -3.14767614	     42.70214272	      0.74529299	      1.35797565	    -11.51371650	      0.00000000	      0.00000000	     96.59533622	     -3.13042832	     -1.14751012	    108.10909417	      1.88685964	     23.98217244	     -4.64136141	      0.00000000	      0.00000000	    -47.03606675	     -1.50825619	     -3.58487488	     89.68545591	     -6.97157839	     38.92679545	     23.50259874	     23.92964354	      0.00000000	      0.00000000	     89.77135896	     -1.36636975	     40.37847888	     24.14467467	     21.35552070	      0.00000000	      0.00000000
      0.03000000	    -19.54889375	      2.89634933	      2.73847476	      0.09396713	      1.07408921	     -0.26004278	      0.00000000	      0.50000000	      0.00000000	      0.25000000	     45.93086690	     -7.89331319	     -3.19195596	     42.70147105	      0.74528127	      1.37264645	    -11.38213775	      0.00000000	      0.00000000	     96.57443235	     -3.09543642	     -1.18744534	    108.09027008	      1.88653110	     23.95738264	     -4.50197252	      0.00000000	      0.00000000	    -47.05127770	     -1.51686866	     -3.56068876	     89.68548274	     -7.08228402	     38.99537844	     23.55722566	     23.43748107	      0.00000000	      0.00000000	     89.77029667	     -1.16982269	     40.61218960	     23.99751949	     20.46770356	      0.00000000	      0.00000000
      0.03500000	    -19.56125611	      2.91199856	      2.77725176	      0.09390077	      1.07408811	     -0.26011058	      0.00000000	      0.50000000	      0.00000000	      0.25000000	     45.95266217	     -7.93860679	     -3.20530347	     42.72079949	      0.74561861	      1.37558878	    -11.36591455	      0.00000000	      0.00000000	     96.59299194	     -3.08538347	     -1.24429499	    108.08058955	      1.88636215	     23.92409435	     -4.49375856	      0.00000000	      0.00000000	    -47.06002776	     -1.49825479	     -3.58810172	     89.68354030	     -6.87942036	     37.82264584	     23.39096262	     24.55295956	      0.00000000	      0.00000000	     89.76855838	     -0.97786392	     39.44689812	     23.82339499	     21.94203300	      0.00000000	      0.00000000
      0.04000000	    -19.59245669	      2.92252960	      2.81385738	      0.09384034	      1.07401875	     -0.26022108	      0.00000000	      0.50000000	      0.00000000	      0.25000000	     46.00041066	     -7.98686576	     -3.23066134	     42.74917532	      0.74611386	      1.38460229	    -11.33991945	      0.00000000	      0.00000000	     96.64119980	     -3.09064391	     -1.32532413	    108.07343846	      1.88623734	     23.87438397	     -4.54078895	      0.00000000	      0.00000000	    -46.99389548	     -1.48525270	     -3.60471245	     89.68741949	     -7.13870847	     38.34476459	     23.10590464	     27.00374309	      0.00000000	      0.00000000	     89.77218365	     -1.22985036	     40.99362640	     23.28210290	     24.22969401	      0.00000000	      0.00000000
      0.04500000	    -19.64509841	      2.93061214	      2.83592150	      0.09379509	      1.07394240	     -0.26028290	      0.00000000	      0.50000000	      0.00000000	      0.25000000	     46.06484527	     -8.00701803	     -3.21335129	     42.75886406	      0.74628296	      1.36926375	    -11.37079042	      0.00000000	      0.00000000	     96.69737313	     -3.12632884	     -1.39821453	    108.06070653	      1.88601512	     23.87268644	     -4.50705316	      0.00000000	      0.00000000	    -46.95353620	     -1.47398972	     -3.73555407	     89.68844236	     -7.08556740	     38.54076579	     23.01381216	     27.80648605	      0.00000000	      0.00000000	     89.77453720	     -1.41703518	     41.07996089	     23.15173906	     24.66177887	      0.00000000	      0.00000000
      0.05000000	    -19.64998146	      2.94935572	      2.88378228	      0.09372408	      1.07392248	     -0.26042879	      0.00000000	      0.50000000	      0.00000000	      0.25000000	     46.08693009	     -8.08148105	     -3.25102280	     42.80097009	      0.74701785	      1.40665598	    -11.27196236	      0.00000000	      0.00000000	     96.71216424	     -3.10470529	     -1.47777998	    108.04905995	      1.88581185	     23.80235309	     -4.58711479	      0.00000000	      0.00000000	    -46.96699694	     -1.45173064	     -3.77673665	     89.68690305	     -6.98779587	     38.26990278	     23.77706706	     23.41131403	      0.00000000	      0.00000000	     89.77207245	     -1.27232567	     40.52867270	     24.02479237	     20.04818969	      0.00000000	      0.00000000
      0.05500000	    -19.68539940	      2.95402416	      2.90213931	      0.09368265	      1.07387254	     -0.26049402	      0.00000000	      0.50000000	      0.00000000	      0.25000000	     46.13110826	     -8.10195483	     -3.25306801	     42.80956774	      0.74716791	      1.39881645	    -11.27963720	      0.00000000	      0.00000000	     96.75180394	     -3.10344531	     -1.51431350	    108.03582916	      1.88558093	     23.78073134	     -4.60321000	      0.00000000	      0.00000000	    -46.92876742	     -1.44718043	     -3.78131449	     89.68826241	     -7.02291073	     38.37318512	     23.76683890	     23.38232952	      0.00000000	      0.00000000	     89.77161702	     -1.25400032	     40.53994107	     23.92832047	     20.50058605	      0.00000000	      0.00000000
      0.06000000	    -19.66222395	      2.97367482	      2.90592121	      0.09376371	      1.07398305	     -0.26054060	      0.00000000	      0.50000000	      0.00000000	      0.25000000	     46.08848177	     -8.13113941	     -3.25496053	     42.78511132	      0.74674106	      1.39926625	    -11.22426904	      0.00000000	      0.00000000	     96.70329748	     -3.09691715	     -1.54455283	    108.02088590	      1.88532012	     23.81961874	     -4.65912566	      0.00000000	      0.00000000	    -46.94106455	     -1.46210864	     -3.77339453	     89.68857003	     -7.08291441	     38.29932167	     22.97333845	     27.54576228	      0.00000000	      0.00000000	     89.77278280	     -1.32288112	     41.01072530	     23.05957784	     25.31302631	      0.00000000	      0.00000000
      0.06500000	    -19.70084301	      2.95252863	      2.88272775	      0.09375354	      1.07384492	     -0.26048813	      0.00000000	      0.50000000	      0.00000000	      0.25000000	     46.15246355	     -8.09015074	     -3.24342611	     42.82245124	      0.74739277	      1.39943907	    -11.25976526	      0.00000000	      0.00000000	     96.76400201	     -3.13315392	     -1.51847871	    108.04590308	      1.88575675	     23.80775375	     -4.59378577	      0.00000000	      0.00000000	    -46.90944172	     -1.47384250	     -3.74876963	     89.68583286	     -6.86492447	     37.19718501	     23.02029067	     27.42862455	      0.00000000	      0.00000000	     89.77073531	     -1.06443991	     39.56542423	     23.14360585	     25.16392449	      0.00000000	      0.00000000
      0.07000000	    -19.71169528	      2.94443862	      2.87151760	      0.09378981	      1.07383136	     -0.26049103	      0.00000000	      0.50000000	      0.00000000	      0.25000000	     46.16074148	     -8.07604283	     -3.23660776	     42.81437608	      0.74725183	      1.39936675	    -11.28492968	      0.00000000	      0.00000000	     96.77341881	     -3.14514307	     -1.50379818	    108.05045425	      1.88583618	     23.82114942	     -4.56297329	      0.00000000	      0.00000000	    -46.91377815	     -1.46473181	     -3.78059770	     89.68470336	     -6.70067179	     36.57103211	     23.03410946	     27.38718323	      0.00000000	      0.00000000	     89.76937092	     -0.99098355	     38.78560457	     23.15712474	     25.10833865	      0.00000000	      0.00000000
